HIERARCHY
ROOT root
{
	OFFSET 0.000000 0.000000 0.000000
	CHANNELS 6 Xposition Yposition Zposition Zrotation Yrotation Xrotation
	JOINT lhip
	{
		OFFSET 0.058581 -0.082280 -0.017664
		CHANNELS 3 Zrotation Yrotation Xrotation
		JOINT lknee
		{
			OFFSET 0.043451 -0.386469 0.008037
			CHANNELS 3 Zrotation Yrotation Xrotation
			JOINT lankle
			{
				OFFSET -0.014790 -0.426874 -0.037428
				CHANNELS 3 Zrotation Yrotation Xrotation
				JOINT ltoe
				{
					OFFSET 0.041054 -0.060286 0.122042
					CHANNELS 3 Zrotation Yrotation Xrotation
					End Site
					{
						OFFSET 0.000000 0.000000 0.000000
					}
				}
			}
		}
	}
	JOINT rhip
	{
		OFFSET -0.060310 -0.090513 -0.013543
		CHANNELS 3 Zrotation Yrotation Xrotation
		JOINT rknee
		{
			OFFSET -0.043257 -0.383688 -0.004843
			CHANNELS 3 Zrotation Yrotation Xrotation
			JOINT rankle
			{
				OFFSET 0.019056 -0.420046 -0.034562
				CHANNELS 3 Zrotation Yrotation Xrotation
				JOINT rtoe
				{
					OFFSET -0.034840 -0.062106 0.130323
					CHANNELS 3 Zrotation Yrotation Xrotation
					End Site
					{
						OFFSET 0.000000 0.000000 0.000000
					}
				}
			}
		}
	}
	JOINT lowerback
	{
		OFFSET 0.004439 0.124404 -0.038385
		CHANNELS 3 Zrotation Yrotation Xrotation
		JOINT upperback
		{
			OFFSET 0.004488 0.137956 0.026820
			CHANNELS 3 Zrotation Yrotation Xrotation
			JOINT chest
			{
				OFFSET -0.002265 0.056032 0.002855
				CHANNELS 3 Zrotation Yrotation Xrotation
				JOINT lowerneck
				{
					OFFSET -0.013390 0.211636 -0.033468
					CHANNELS 3 Zrotation Yrotation Xrotation
					JOINT upperneck
					{
						OFFSET 0.010113 0.088937 0.050410
						CHANNELS 3 Zrotation Yrotation Xrotation
						End Site
						{
							OFFSET 0.000000 0.000000 0.000000
						}
					}
				}
				JOINT lclavicle
				{
					OFFSET 0.071702 0.114000 -0.018898
					CHANNELS 3 Zrotation Yrotation Xrotation
					JOINT lshoulder
					{
						OFFSET 0.122921 0.045205 -0.019046
						CHANNELS 3 Zrotation Yrotation Xrotation
						JOINT lelbow
						{
							OFFSET 0.255332 -0.015649 -0.022946
							CHANNELS 3 Zrotation Yrotation Xrotation
							JOINT lwrist
							{
								OFFSET 0.265709 0.012698 -0.007375
								CHANNELS 3 Zrotation Yrotation Xrotation
								End Site
								{
									OFFSET 0.000000 0.000000 0.000000
								}
							}
						}
					}
				}
				JOINT rclavicle
				{
					OFFSET -0.082954 0.112472 -0.023707
					CHANNELS 3 Zrotation Yrotation Xrotation
					JOINT rshoulder
					{
						OFFSET -0.113228 0.046853 -0.008472
						CHANNELS 3 Zrotation Yrotation Xrotation
						JOINT relbow
						{
							OFFSET -0.260127 -0.014369 -0.031269
							CHANNELS 3 Zrotation Yrotation Xrotation
							JOINT rwrist
							{
								OFFSET -0.269108 0.006794 -0.006027
								CHANNELS 3 Zrotation Yrotation Xrotation
								End Site
								{
									OFFSET 0.000000 0.000000 0.000000
								}
							}
						}
					}
				}
			}
		}
	}
}
MOTION
Frames: 13
Frame Time: 0.033333
0.516761 0.766980 0.995198 -85.228536 3.969447 87.524768 4.043208 0.605668 5.009442 -3.001278 -13.469262 2.329904 5.895287 7.872646 -16.653218 0.000000 -0.000000 0.000000 2.389666 -2.097546 3.360574 3.775708 1.048908 5.082971 3.169063 -3.094417 -10.287812 0.000000 -0.000000 0.000000 -1.809216 0.526442 6.473196 1.655035 -3.539108 1.040148 1.212841 -1.885761 2.255715 2.008652 1.640602 11.210362 4.617114 -0.874875 1.646060 -26.489093 4.437373 4.499130 -61.632580 -6.375353 6.566695 11.018135 -22.268885 4.115013 -4.586652 0.677902 -8.129545 24.600695 -2.473839 1.964495 63.040178 2.635410 9.825854 -14.996283 22.994387 -3.364499 7.844696 -1.121446 -9.672232 
0.516706 0.766807 0.995108 -85.215570 3.994374 87.568619 4.042068 0.624316 4.952358 -2.949975 -13.320280 2.381417 5.874168 7.845272 -16.724688 0.000000 -0.000000 0.000000 2.372161 -2.051715 3.347123 3.825949 0.901854 5.027637 3.205589 -3.026204 -10.267823 0.000000 -0.000000 0.000000 -1.736723 0.508803 6.454603 1.620314 -3.500609 0.992379 1.205955 -1.929262 2.381749 2.111876 1.670427 10.959662 4.504923 -0.954629 1.825309 -26.449327 4.475832 4.450700 -61.691709 -6.446499 6.575050 11.073319 -22.205105 4.065489 -4.705232 0.691438 -8.118326 24.505164 -2.440910 1.925121 63.171723 2.760981 9.914274 -15.072411 22.871916 -3.376456 7.771208 -1.108396 -9.726596 
0.516508 0.766716 0.995145 -85.272794 3.944756 87.580327 3.992605 0.638331 5.015175 -2.981162 -13.401050 2.194802 5.788140 7.694721 -16.690590 0.000000 -0.000000 0.000000 2.346226 -1.988027 3.333537 3.746377 0.888095 5.027715 3.274610 -3.020834 -10.221360 0.000000 -0.000000 0.000000 -1.739666 0.527158 6.445168 1.578406 -3.443251 0.968837 1.197454 -1.950248 2.430209 2.161165 1.693159 10.878699 4.456086 -1.007279 1.884063 -26.408511 4.516745 4.388647 -61.717600 -6.443372 6.595597 11.055398 -22.171278 4.064895 -4.712475 0.683825 -8.072727 24.446366 -2.433160 1.920752 63.267057 2.853243 9.955687 -15.133037 22.965914 -3.400712 7.803617 -1.084156 -9.780715 
0.516461 0.766883 0.995195 -85.246528 3.959339 87.623734 4.012021 0.617399 4.899598 -2.968367 -13.273458 2.367789 5.779301 7.838473 -16.673354 0.000000 -0.000000 0.000000 2.388169 -1.951796 3.308479 3.755960 0.890990 4.999248 3.247543 -3.106273 -10.146990 0.000000 -0.000000 0.000000 -1.769379 0.531253 6.434654 1.576284 -3.436954 1.005160 1.214646 -1.964724 2.459450 2.127591 1.671510 10.803407 4.471107 -0.986948 1.928429 -26.342015 4.505352 4.376393 -61.775746 -6.461073 6.633814 11.094403 -22.170859 4.133241 -4.601857 0.722308 -8.131568 24.390895 -2.349564 1.902609 63.326851 2.872384 10.047209 -15.144612 23.077245 -3.343748 7.745091 -1.231428 -9.929851 
0.516299 0.766815 0.995263 -85.290020 3.944322 87.621089 3.984167 0.645150 4.935255 -2.957121 -13.228440 2.349201 5.812743 7.855832 -16.712114 0.000000 -0.000000 0.000000 2.345654 -1.939251 3.315010 3.783823 0.921831 5.015511 3.269134 -3.034326 -10.221678 0.000000 -0.000000 0.000000 -1.776975 0.532518 6.416550 1.567582 -3.433447 1.021026 1.202357 -1.968049 2.515268 2.187337 1.686538 10.712480 4.441620 -1.017671 2.005225 -26.459320 4.540302 4.387377 -61.641746 -6.444018 6.645789 11.150345 -22.401533 4.008510 -4.447341 0.763569 -8.064557 24.503729 -2.287090 1.893273 63.196408 2.904964 10.108571 -15.083346 23.403975 -3.487877 7.625010 -1.216432 -9.967486 
0.516255 0.766940 0.995301 -85.288749 3.950171 87.578740 3.984529 0.623827 4.948196 -2.952667 -13.239265 2.430755 5.891738 7.789688 -16.735608 0.000000 -0.000000 0.000000 2.350029 -1.976642 3.330342 3.778038 0.876762 5.063759 3.262010 -3.005830 -10.206906 0.000000 -0.000000 0.000000 -1.829561 0.587005 6.456705 1.606851 -3.452229 1.165473 1.249202 -1.944431 2.448871 2.180514 1.684081 10.856109 4.458693 -0.990120 1.937597 -26.392864 4.446196 4.424511 -61.726792 -6.474349 6.621914 11.242130 -22.457243 3.974314 -4.562747 0.792971 -8.125866 24.411566 -2.210937 1.880376 63.288367 2.945459 10.075270 -15.236475 23.538032 -3.489846 7.661972 -1.265020 -9.938980 
0.516155 0.766985 0.995352 -85.338806 3.951404 87.604950 3.988787 0.607873 4.881094 -2.990121 -13.203474 2.514848 5.907413 7.712440 -16.778331 0.000000 -0.000000 0.000000 2.343485 -1.942636 3.296695 3.815486 0.914852 5.096952 3.294082 -3.010256 -10.165240 0.000000 -0.000000 0.000000 -1.836474 0.611629 6.443099 1.598318 -3.434077 1.136627 1.247059 -1.919264 2.506674 2.209080 1.713917 10.816413 4.442887 -1.018431 1.971788 -26.312905 4.425606 4.359172 -61.669192 -6.505789 6.668711 11.062750 -22.505768 4.127694 -4.497943 0.809815 -8.105949 24.360155 -2.174069 1.810238 63.299646 2.997733 10.104814 -15.222685 23.686543 -3.458472 7.578372 -1.237277 -9.922879 
0.515934 0.767035 0.995345 -85.325644 3.942960 87.636761 4.001967 0.696173 4.888847 -2.983621 -13.201245 2.490058 5.846005 7.808011 -16.738137 0.000000 -0.000000 0.000000 2.340770 -1.948220 3.303201 3.804702 0.935172 5.059790 3.325714 -3.012070 -10.201546 0.000000 -0.000000 0.000000 -1.865819 0.609025 6.456711 1.598720 -3.428727 1.120332 1.247705 -1.918695 2.485474 2.243456 1.695590 10.817815 4.447594 -1.029448 1.991148 -26.311550 4.414418 4.338295 -61.579763 -6.514582 6.708108 11.035753 -22.462186 4.273018 -4.513713 0.627140 -8.127319 24.321593 -2.129087 1.790136 63.298232 3.022589 10.129860 -15.067953 23.623108 -3.468322 7.580430 -1.181717 -10.134918 
0.515970 0.767121 0.995394 -85.312398 3.948733 87.719856 3.990778 0.684709 4.806755 -2.957669 -13.250111 2.464247 5.811894 7.834956 -16.768313 0.000000 -0.000000 0.000000 2.345196 -1.932187 3.167085 3.793309 0.820368 5.136702 3.355071 -2.958003 -10.185635 0.000000 -0.000000 0.000000 -1.857675 0.592460 6.548907 1.571758 -3.379874 0.950586 1.253699 -1.904349 2.473879 2.191946 1.704113 10.753165 4.446635 -1.033969 2.014597 -26.290372 4.351662 4.306975 -61.538781 -6.457400 6.677662 11.054355 -22.543141 4.133499 -4.398481 0.583316 -8.121577 24.345188 -2.135405 1.868252 63.274321 3.028145 10.110861 -15.144369 23.949887 -3.481200 7.572570 -0.974820 -10.078991 
0.515565 0.767372 0.995438 -85.378855 3.930977 87.737965 3.995739 0.676781 4.920182 -2.935092 -13.207740 2.312119 5.874781 7.846945 -16.736836 0.000000 -0.000000 0.000000 2.358205 -1.875167 3.224338 3.774100 0.873823 5.045832 3.234358 -2.972110 -10.203681 0.000000 -0.000000 0.000000 -1.889029 0.654305 6.546730 1.533534 -3.341060 0.999298 1.201786 -1.906131 2.426299 2.106278 1.720028 10.845156 4.462660 -1.000821 1.945081 -26.190676 4.268006 4.370263 -61.496311 -6.498151 6.652044 11.081698 -22.530218 4.082360 -4.499970 0.624837 -8.282895 24.334258 -2.026644 1.969399 63.357484 2.943550 10.151806 -15.202926 24.150601 -3.488603 7.558536 -1.141307 -10.231816 
0.515686 0.767489 0.995430 -85.284608 3.954280 87.850369 4.023475 0.591616 4.720420 -2.964327 -13.225346 2.439480 5.846195 7.848236 -16.718449 0.000000 -0.000000 0.000000 2.407194 -1.787202 3.141764 3.764156 0.780364 4.934171 3.256797 -3.085800 -10.136703 0.000000 -0.000000 0.000000 -1.909210 0.605859 6.563934 1.549721 -3.368168 0.895273 1.250514 -1.910097 2.468319 2.100025 1.733072 10.774730 4.483780 -0.979926 1.952222 -26.247888 4.230630 4.412107 -61.463157 -6.519637 6.615323 11.161686 -22.644335 4.000836 -4.500860 0.755170 -8.227195 24.274665 -2.068258 1.934707 63.355872 3.004544 10.173038 -15.232749 24.196805 -3.446420 7.677573 -0.925281 -10.179682 
0.515257 0.767521 0.995561 -85.333436 3.939765 87.882124 3.992529 0.605643 4.742081 -2.938790 -13.212322 2.397527 5.825636 7.920342 -16.746808 0.000000 -0.000000 0.000000 2.392429 -1.734452 3.165727 3.770965 0.770617 4.879590 3.348396 -3.079655 -10.105534 0.000000 -0.000000 0.000000 -1.918117 0.578971 6.631842 1.519440 -3.339183 0.738782 1.243363 -1.914222 2.477048 2.151782 1.717868 10.619323 4.478339 -1.000647 2.039493 -26.227801 4.328865 4.337832 -61.453048 -6.470127 6.650141 11.125667 -22.622211 4.066698 -4.478324 0.672976 -8.215700 24.266881 -2.141896 1.870037 63.372248 2.947876 10.248929 -15.191344 24.138767 -3.418472 7.609908 -0.951357 -10.210253 
0.514999 0.767537 0.995597 -85.367375 3.947149 87.910755 3.998794 0.651888 4.736564 -2.923554 -13.180129 2.390909 5.791282 7.919110 -16.786922 0.000000 -0.000000 0.000000 2.387402 -1.738835 3.116501 3.786111 0.786790 4.936704 3.429659 -3.041206 -10.151251 0.000000 -0.000000 0.000000 -1.897748 0.580210 6.765447 1.508028 -3.255165 0.577272 1.244742 -1.921980 2.510129 2.182881 1.747261 10.508981 4.445722 -1.001041 2.151635 -26.245066 4.406156 4.258412 -61.359377 -6.439493 6.696635 10.960856 -22.744241 4.238944 -4.374325 0.504717 -8.085425 24.297692 -2.281786 1.848803 63.228303 2.981291 10.270537 -15.055935 24.266440 -3.307533 7.504432 -0.904283 -10.053971 
